<?xml version="1.0" encoding="UTF-8"?>
<svg xmlns="http://www.w3.org/2000/svg" width="0" height="0" style="position:absolute" aria-hidden="true">
  <!-- Heroicons (https://heroicons.com) outline / 24px. MIT-licensed.
       Bundled here so the dashboard never requests external assets at runtime. -->
  <symbol id="icon-home" viewBox="0 0 24 24">
    <path d="M2.25 12L11.2045 3.04549C11.6438 2.60615 12.3562 2.60615 12.7955 3.04549L21.75 12M4.5 9.75V19.875C4.5 20.4963 5.00368 21 5.625 21H9.75V16.125C9.75 15.5037 10.2537 15 10.875 15H13.125C13.7463 15 14.25 15.5037 14.25 16.125V21H18.375C18.9963 21 19.5 20.4963 19.5 19.875V9.75M8.25 21H16.5" stroke="currentColor" stroke-width="1.5" stroke-linecap="round" stroke-linejoin="round" fill="none"/>
  </symbol>
  <symbol id="icon-document-check" viewBox="0 0 24 24">
    <path d="M10.125 2.25H5.625C5.00368 2.25 4.5 2.75368 4.5 3.375V20.625C4.5 21.2463 5.00368 21.75 5.625 21.75H18.375C18.9963 21.75 19.5 21.2463 19.5 20.625V11.625M10.125 2.25H10.5C15.4706 2.25 19.5 6.27944 19.5 11.25V11.625M10.125 2.25C11.989 2.25 13.5 3.76104 13.5 5.625V7.125C13.5 7.74632 14.0037 8.25 14.625 8.25H16.125C17.989 8.25 19.5 9.76104 19.5 11.625M9 15L11.25 17.25L15 12" stroke="currentColor" stroke-width="1.5" stroke-linecap="round" stroke-linejoin="round" fill="none"/>
  </symbol>
  <symbol id="icon-server" viewBox="0 0 24 24">
    <path d="M21.75 17.25V17.0223C21.75 16.6753 21.7099 16.3294 21.6304 15.9916L19.3622 6.35199C19.0035 4.82745 17.6431 3.75 16.077 3.75H7.92305C6.35688 3.75 4.99648 4.82745 4.63777 6.35199L2.36962 15.9916C2.29014 16.3294 2.25 16.6753 2.25 17.0223V17.25M21.75 17.25C21.75 18.9069 20.4069 20.25 18.75 20.25H5.25C3.59315 20.25 2.25 18.9069 2.25 17.25M21.75 17.25C21.75 15.5931 20.4069 14.25 18.75 14.25H5.25C3.59315 14.25 2.25 15.5931 2.25 17.25M18.75 17.25H18.7575V17.2575H18.75V17.25ZM15.75 17.25H15.7575V17.2575H15.75V17.25Z" stroke="currentColor" stroke-width="1.5" stroke-linecap="round" stroke-linejoin="round" fill="none"/>
  </symbol>
  <symbol id="icon-shield-check" viewBox="0 0 24 24">
    <path d="M9 12.7498L11.25 14.9998L15 9.74985M12 2.71411C9.8495 4.75073 6.94563 5.99986 3.75 5.99986C3.69922 5.99986 3.64852 5.99955 3.59789 5.99892C3.2099 7.17903 3 8.43995 3 9.74991C3 15.3414 6.82432 20.0397 12 21.3719C17.1757 20.0397 21 15.3414 21 9.74991C21 8.43995 20.7901 7.17903 20.4021 5.99892C20.3515 5.99955 20.3008 5.99986 20.25 5.99986C17.0544 5.99986 14.1505 4.75073 12 2.71411Z" stroke="currentColor" stroke-width="1.5" stroke-linecap="round" stroke-linejoin="round" fill="none"/>
  </symbol>
  <symbol id="icon-chart-bar" viewBox="0 0 24 24">
    <path d="M3 13.125C3 12.5037 3.50368 12 4.125 12H6.375C6.99632 12 7.5 12.5037 7.5 13.125V19.875C7.5 20.4963 6.99632 21 6.375 21H4.125C3.50368 21 3 20.4963 3 19.875V13.125Z" stroke="currentColor" stroke-width="1.5" stroke-linecap="round" stroke-linejoin="round" fill="none"/>
    <path d="M9.75 8.625C9.75 8.00368 10.2537 7.5 10.875 7.5H13.125C13.7463 7.5 14.25 8.00368 14.25 8.625V19.875C14.25 20.4963 13.7463 21 13.125 21H10.875C10.2537 21 9.75 20.4963 9.75 19.875V8.625Z" stroke="currentColor" stroke-width="1.5" stroke-linecap="round" stroke-linejoin="round" fill="none"/>
    <path d="M16.5 4.125C16.5 3.50368 17.0037 3 17.625 3H19.875C20.4963 3 21 3.50368 21 4.125V19.875C21 20.4963 20.4963 21 19.875 21H17.625C17.0037 21 16.5 20.4963 16.5 19.875V4.125Z" stroke="currentColor" stroke-width="1.5" stroke-linecap="round" stroke-linejoin="round" fill="none"/>
  </symbol>
  <symbol id="icon-key" viewBox="0 0 24 24">
    <path d="M15.75 5.25C17.4069 5.25 18.75 6.59315 18.75 8.25M21.75 8.25C21.75 11.5637 19.0637 14.25 15.75 14.25C15.3993 14.25 15.0555 14.2199 14.7213 14.1622C14.1583 14.0649 13.562 14.188 13.158 14.592L10.5 17.25H8.25V19.5H6V21.75H2.25V18.932C2.25 18.3352 2.48705 17.7629 2.90901 17.341L9.408 10.842C9.81202 10.438 9.93512 9.84172 9.83785 9.2787C9.7801 8.94446 9.75 8.60074 9.75 8.25C9.75 4.93629 12.4363 2.25 15.75 2.25C19.0637 2.25 21.75 4.93629 21.75 8.25Z" stroke="currentColor" stroke-width="1.5" stroke-linecap="round" stroke-linejoin="round" fill="none"/>
  </symbol>
  <symbol id="icon-user-circle" viewBox="0 0 24 24">
    <path d="M17.9815 18.7248C16.6121 16.9175 14.4424 15.75 12 15.75C9.55761 15.75 7.38789 16.9175 6.01846 18.7248M17.9815 18.7248C19.8335 17.0763 21 14.6744 21 12C21 7.02944 16.9706 3 12 3C7.02944 3 3 7.02944 3 12C3 14.6744 4.1665 17.0763 6.01846 18.7248M17.9815 18.7248C16.3915 20.1401 14.2962 21 12 21C9.70383 21 7.60851 20.1401 6.01846 18.7248M15 9.75C15 11.4069 13.6569 12.75 12 12.75C10.3431 12.75 9 11.4069 9 9.75C9 8.09315 10.3431 6.75 12 6.75C13.6569 6.75 15 8.09315 15 9.75Z" stroke="currentColor" stroke-width="1.5" stroke-linecap="round" stroke-linejoin="round" fill="none"/>
  </symbol>
  <symbol id="icon-arrow-right-on-rectangle" viewBox="0 0 24 24">
    <path d="M15.75 9V5.25C15.75 4.00736 14.7426 3 13.5 3L7.5 3C6.25736 3 5.25 4.00736 5.25 5.25L5.25 18.75C5.25 19.9926 6.25736 21 7.5 21H13.5C14.7426 21 15.75 19.9926 15.75 18.75V15M18.75 15L21.75 12M21.75 12L18.75 9M21.75 12L9 12" stroke="currentColor" stroke-width="1.5" stroke-linecap="round" stroke-linejoin="round" fill="none"/>
  </symbol>
  <!-- Branded mark used for the favicon + login screen icon. -->
  <symbol id="icon-mark" viewBox="0 0 24 24">
    <path d="M4 12 L12 4 L20 12 L12 20 Z" stroke="currentColor" stroke-width="1.5" stroke-linecap="round" stroke-linejoin="round" fill="none"/>
    <path d="M9 12 L12 9 L15 12 L12 15 Z" stroke="currentColor" stroke-width="1.5" stroke-linecap="round" stroke-linejoin="round" fill="none"/>
  </symbol>
</svg>
